<svg fill="none" height="15" viewBox="0 0 15 15" width="15" xmlns="http://www.w3.org/2000/svg"><path clip-rule="evenodd" d="m5.31537 1.83658c-.39946-.11589-.69577-.08481-.91131.03194-.21555.11676-.40345.34796-.5246.74586-.12203.40079-.16368.93586-.10438 1.58192.00961.10469.02181.21164.0366.32067.52319-.13296 1.08543-.23797 1.6762-.31128.40954-.5738.83912-1.09124 1.27493-1.53994-.02184-.0177-.04364-.03517-.06542-.0524-.50874-.40262-.97966-.66003-1.38202-.77677zm2.18457.14092c-.0607-.05089-.12137-.10034-.18198-.1483-.57196-.45265-1.15771-.78873-1.72395-.953011-.56914-.165127-1.15336-.164774-1.66625.113045-.51288.277816-.83233.766966-1.00494 1.333886-.17173.56402-.21023 1.23824-.14355 1.96459.01563.17025.03716.34474.06452.52294-.1697.06081-.33337.12498-.4905.19232-.67043.28733-1.24492.6423-1.659069 1.06194-.41627.42179-.694221.93566-.694221 1.51896 0 .58329.27795 1.09716.694221 1.51895.414149.41964.988639.77461 1.659069 1.06198.15713.0673.32079.1315.49049.1923-.02736.1782-.0489.3527-.06453.523-.06668.7263-.02818 1.4005.14355 1.9646.17261.5669.49206 1.056 1.00494 1.3338.51289.2779 1.09711.2782 1.66625.1131.56624-.1643 1.15199-.5004 1.72395-.953.06062-.048.12129-.0974.182-.1483.06071.0509.12138.1003.18199.1483.57197.4526 1.15772.7887 1.72396.953.56914.1651 1.15331.1648 1.66621-.1131.5129-.2778.8324-.7669 1.005-1.3338.1717-.5641.2102-1.2383.1435-1.9646-.0156-.1703-.0371-.3448-.0645-.523.1697-.0608.3334-.125.4906-.1923.6704-.28737 1.2449-.64234 1.6591-1.06198.4162-.42179.6942-.93566.6942-1.51895 0-.5833-.278-1.09717-.6942-1.51896-.4142-.41964-.9887-.77461-1.6591-1.06194-.1572-.06735-.3209-.13153-.4906-.19236.0273-.17819.0489-.35266.0645-.5229.0667-.72635.0282-1.40057-.1435-1.96459-.1726-.56692-.4921-1.05607-1.005-1.333886-.5129-.277819-1.09709-.278172-1.66623-.113045-.56624.164281-1.15199.500361-1.72396.953011-.0606.04796-.12127.09741-.18197.1483zm0 1.36466c-.2248.23017-.44978.48245-.67223.75496.22165-.00878.4459-.01325.67229-.01325.22635 0 .45056.00447.67216.01325-.22244-.27251-.44742-.52479-.67222-.75496zm2.01205.86351c-.40954-.57379-.83912-1.09123-1.27492-1.53992.02184-.0177.04364-.03517.06542-.0524.50874-.40262.97966-.66003 1.38202-.77677.39949-.11589.69579-.08481.91129.03194.2156.11676.4035.34796.5246.74586.122.40079.1637.93586.1044 1.58192-.0096.10468-.0218.21162-.0366.32064-.5232-.13295-1.0854-.23796-1.67621-.31127zm-.56264.94467c-.46535-.04341-.95025-.06647-1.44935-.06647-.49915 0-.98409.02306-1.44948.06648-.25983.38852-.51108.80393-.74881 1.24281-.21649.39966-.41055.79807-.58205 1.19071.17151.39265.36558.79107.58207 1.19075.23772.43886.48897.85426.74878 1.24278.46539.0434.95034.0665 1.44949.0665.49911 0 .98401-.0231 1.44936-.0665.25982-.38851.51106-.80391.74879-1.24278.21649-.39968.41055-.7981.58205-1.19075-.1715-.39263-.36555-.79105-.58203-1.19071-.23774-.43889-.48899-.8543-.74882-1.24282zm1.82345 1.13804c-.0632-.12386-.1283-.24774-.1953-.37151-.1079-.19906-.2186-.39411-.3319-.58481.2606.04961.5117.10597.7522.16844-.0632.25588-.1382.51907-.225.78788zm0 2.59098c-.0632.12387-.1283.24776-.1954.37155-.1078.19904-.2185.39407-.3318.58477.2606-.04962.5117-.10599.7522-.16846-.0632-.25587-.1382-.51906-.225-.78786zm1.1805.48683c-.145-.57369-.3419-1.17265-.5884-1.78233.2465-.60967.4434-1.20863.5884-1.78232.103.03894.2028.07916.2995.12058.5963.25556 1.0469.54704 1.3412.84523.2922.29604.406.57138.406.81652 0 .24513-.1138.52047-.406.81651-.2943.29819-.7449.58967-1.3412.84523-.0967.04142-.1965.08164-.2995.12058zm-.7651 1.28461c-.5232.1329-1.0854.238-1.67619.3113-.40954.5738-.83913 1.0912-1.27494 1.5399.02184.0177.04365.0352.06544.0524.50874.4026.97966.6601 1.38202.7768.39947.1159.69577.0848.91127-.0319.2156-.1168.4035-.348.5246-.7459.1221-.4008.1637-.9359.1044-1.5819-.0096-.1047-.0218-.2117-.0366-.3207zm-3.68826 1.1748c.22481-.2302.44979-.4825.67224-.755-.22161.0088-.44583.0133-.67218.0133-.22639 0-.45065-.0045-.67231-.0133.22246.2725.44744.5248.67225.755zm-2.74568-1.98995c-.11328-.19068-.22401-.38571-.33182-.58474-.06705-.12379-.13219-.24768-.1954-.37155-.08673.26879-.16173.53197-.22496.78783.24045.06248.4916.11884.75218.16846zm-.94259.81515c.52318.1329 1.08543.2379 1.67619.3112.40954.5738.83914 1.0913 1.27496 1.54-.02185.0177-.04367.0352-.06545.0524-.50874.4026-.97966.6601-1.38202.7768-.39946.1159-.69577.0848-.91131-.0319-.21555-.1168-.40345-.348-.5246-.7459-.12203-.4008-.16368-.9359-.10438-1.5819.00962-.1047.02182-.2117.03661-.3207zm-.76511-1.28465c.145-.57368.34188-1.17263.58838-1.78228-.2465-.60966-.44337-1.20861-.58838-1.78229-.1029.03893-.20273.07913-.29935.12054-.59632.25556-1.04695.54704-1.34124.84523-.29217.29604-.40597.57138-.40597.81652 0 .24513.1138.52047.40597.81651.29429.29819.74492.58967 1.34124.84523.09662.04141.19645.08161.29935.12054zm.95552-3.86562c.06323.25587.13823.51905.22496.78784.0632-.12385.12834-.24772.19538-.3715.10782-.19905.21856-.39409.33185-.58479-.26058.04962-.51173.10598-.75219.16845zm1.99792 2.08334c0-.82843.67157-1.5 1.5-1.5s1.5.67157 1.5 1.5c0 .82842-.67157 1.5-1.5 1.5s-1.5-.67158-1.5-1.5zm1.5-.5c-.27614 0-.5.22385-.5.5 0 .27614.22386.5.5.5s.5-.22386.5-.5c0-.27615-.22386-.5-.5-.5z" fill="#000" fill-rule="evenodd"/></svg>